<svg id="Layer_1" data-name="Layer 1" xmlns="http://www.w3.org/2000/svg" viewBox="0 0 512 512"><defs><style>.cls-1{fill:#ffd38d;}.cls-2{fill:#6d4135;}.cls-3{opacity:0.1;}</style></defs><title>plus-flat</title><path class="cls-1" d="M256,0C114.84,0,0,114.84,0,256S114.84,512,256,512,512,397.16,512,256,397.16,0,256,0Z"/><path class="cls-2" d="M341.33,234.67h-64v-64a21.33,21.33,0,1,0-42.67,0v64h-64a21.33,21.33,0,1,0,0,42.67h64v64a21.33,21.33,0,1,0,42.67,0v-64h64a21.33,21.33,0,1,0,0-42.67Z"/><g class="cls-3"><path d="M512,256c0,141.12-114.88,256-256,256V0C397.12,0,512,114.88,512,256Z"/></g></svg>